<?xml version="1.0" standalone="no"?>
<!DOCTYPE svg PUBLIC "-//W3C//DTD SVG 20010904//EN"
 "http://www.w3.org/TR/2001/REC-SVG-20010904/DTD/svg10.dtd">
<svg version="1.0" xmlns="http://www.w3.org/2000/svg"
 width="1024.000000pt" height="1024.000000pt" viewBox="0 0 1024.000000 1024.000000"
 preserveAspectRatio="xMidYMid meet">
<metadata>
Created by potrace 1.14, written by Peter Selinger 2001-2017
</metadata>
<g transform="translate(0.000000,1024.000000) scale(0.100000,-0.100000)"
fill="#000000" stroke="none">
<path d="M7712 8579 c-71 -12 -308 -90 -458 -149 -225 -90 -356 -162 -509
-282 -55 -43 -119 -88 -143 -99 -64 -31 -131 -23 -211 25 -80 49 -141 65 -271
72 -122 7 -201 -10 -468 -98 -142 -47 -161 -56 -255 -125 -143 -105 -205 -135
-292 -141 -89 -5 -151 17 -277 100 -118 78 -226 128 -354 166 -299 89 -570 80
-721 -24 -50 -34 -57 -36 -107 -31 -64 6 -135 41 -230 112 -93 69 -241 151
-396 218 -265 115 -578 198 -687 183 -133 -18 -198 -106 -214 -287 -9 -107
-33 -179 -90 -276 -83 -137 -204 -219 -596 -402 -78 -36 -147 -100 -159 -146
-18 -72 38 -209 186 -455 121 -201 154 -276 196 -440 28 -106 38 -175 50 -325
8 -104 14 -229 12 -277 -3 -80 -1 -88 21 -112 42 -44 123 -69 231 -70 84 0
101 3 152 27 148 72 287 267 347 487 35 128 71 316 71 372 0 29 4 80 10 112
12 73 -2 184 -31 242 -10 23 -65 90 -120 149 -187 200 -230 276 -237 413 -11
202 95 368 295 464 46 22 85 44 89 49 8 13 52 11 61 -3 4 -7 10 -65 13 -128 5
-106 9 -122 41 -190 20 -41 57 -103 83 -136 66 -89 212 -223 285 -264 94 -53
146 -93 146 -116 0 -18 -8 -19 -120 -20 -165 -1 -203 -8 -274 -54 -76 -49 -77
-55 -61 -303 14 -203 14 -197 -30 -457 -42 -253 -79 -343 -234 -570 -74 -109
-104 -144 -158 -185 -88 -67 -210 -130 -276 -144 -65 -14 -108 -35 -122 -61
-6 -11 -22 -61 -35 -112 -116 -436 -134 -536 -135 -744 0 -123 17 -187 91
-329 139 -268 352 -787 414 -1008 25 -88 45 -168 45 -178 0 -35 19 -29 29 8 5
21 32 126 60 233 27 107 73 272 101 365 29 94 65 219 81 280 49 184 74 228
191 331 145 127 200 169 296 221 114 62 147 93 168 156 9 29 35 90 56 136 21
46 49 122 63 168 42 146 69 174 185 192 82 14 161 14 231 1 46 -9 74 -6 175
14 134 27 201 51 289 99 59 33 79 57 89 107 3 14 19 47 36 73 57 85 190 133
439 157 58 6 107 12 109 15 12 11 -44 56 -82 66 -22 6 -112 14 -200 19 -89 4
-176 13 -194 20 -18 7 -38 10 -45 7 -7 -3 -18 -33 -25 -66 -30 -164 -147 -302
-329 -389 -69 -33 -88 -37 -169 -40 -80 -3 -101 0 -185 28 -51 17 -118 45
-149 62 -128 73 -235 229 -260 379 -28 165 37 356 167 488 l64 66 -28 22 c-68
55 -251 90 -309 60 -87 -45 -298 -321 -360 -470 -44 -106 -60 -129 -87 -125
-35 5 -32 50 13 219 23 85 61 231 85 324 64 257 107 333 210 381 63 30 132 31
280 4 61 -11 157 -23 215 -26 183 -10 221 -27 266 -116 78 -155 245 -287 568
-449 170 -85 413 -175 529 -195 67 -11 99 -42 135 -129 66 -161 53 -145 126
-145 57 0 67 3 84 25 11 14 23 44 26 69 8 50 60 141 97 168 14 11 64 28 110
38 168 36 473 174 668 300 189 123 284 217 367 366 20 36 43 68 53 73 21 12
300 61 344 61 18 0 65 9 106 20 181 48 304 7 373 -126 37 -71 196 -551 218
-659 21 -99 19 -120 -10 -123 -22 -2 -31 6 -62 60 -20 35 -50 90 -66 123 -35
70 -98 157 -170 237 -60 64 -186 163 -220 171 -32 8 -111 -17 -205 -64 -90
-46 -91 -50 -3 -120 101 -82 156 -207 164 -375 9 -186 -39 -314 -156 -422
-117 -109 -247 -162 -398 -162 -230 0 -425 140 -510 366 -13 36 -24 76 -24 91
0 26 0 26 -62 19 -35 -3 -109 -15 -166 -26 -56 -11 -134 -20 -173 -20 -65 0
-71 -2 -107 -35 -47 -44 -35 -55 60 -55 107 0 287 -29 343 -54 69 -31 118 -76
139 -128 42 -103 49 -112 112 -143 34 -17 114 -46 179 -64 l118 -33 221 8
c212 6 223 6 262 -14 53 -27 97 -109 164 -307 28 -81 57 -159 64 -173 23 -44
76 -88 161 -133 121 -64 282 -176 361 -251 86 -82 122 -146 162 -293 17 -61
56 -183 87 -270 55 -157 154 -492 176 -594 9 -42 13 -50 24 -41 8 7 17 33 20
58 16 120 139 501 241 744 57 135 104 253 104 261 0 7 23 61 51 118 103 208
118 299 84 504 -8 50 -15 108 -15 131 0 81 -106 467 -155 565 -22 43 -27 47
-97 67 -172 50 -368 174 -473 300 -132 157 -189 290 -245 570 -50 252 -63 386
-54 583 l7 155 -28 22 c-16 13 -60 32 -99 45 -59 18 -93 22 -208 22 -138 -1
-138 -1 -138 22 0 23 14 34 162 123 22 14 75 59 118 101 179 176 266 359 258
543 l-3 81 42 -1 c29 0 71 -15 129 -44 143 -70 244 -190 288 -339 45 -155 -7
-292 -199 -521 -114 -136 -158 -217 -163 -304 -7 -105 63 -454 129 -646 73
-213 223 -378 393 -432 94 -30 177 -21 263 28 l68 39 6 140 c13 294 30 511 44
571 21 92 61 185 204 478 173 352 191 421 130 491 -39 44 -50 50 -267 141
-203 85 -299 142 -398 236 -92 88 -125 151 -159 303 -48 219 -78 285 -146 321
-38 19 -139 26 -207 13z m-1242 -1588 c0 -29 -94 -106 -182 -151 -43 -21 -112
-46 -155 -55 -152 -32 -179 -48 -217 -123 -39 -77 -86 -221 -96 -295 -12 -79
-51 -152 -85 -161 -39 -10 -146 14 -269 60 -67 24 -147 48 -179 53 -62 8 -83
21 -74 45 10 25 75 37 226 43 182 7 186 10 206 136 15 92 54 195 119 310 l37
67 54 0 c30 0 77 -5 106 -11 90 -19 331 23 429 75 56 30 80 32 80 7z m-2662
-45 c79 -39 142 -54 258 -61 85 -5 130 -3 193 10 91 18 129 14 159 -18 36 -39
99 -179 127 -282 15 -55 36 -121 47 -147 l20 -48 152 0 c171 0 239 -14 244
-48 3 -17 -6 -23 -49 -36 -29 -9 -61 -16 -70 -16 -31 0 -190 -56 -269 -94 -41
-20 -87 -36 -103 -36 -48 0 -80 43 -106 140 -49 190 -124 368 -165 395 -13 9
-59 22 -102 30 -90 18 -235 60 -279 82 -16 9 -42 27 -56 42 -15 14 -38 36 -53
48 -29 24 -35 63 -11 63 9 0 37 -11 63 -24z"/>
<path d="M6515 6122 l-28 -14 55 -22 c142 -58 202 -145 202 -291 -1 -159 -70
-264 -200 -305 -78 -24 -101 -24 -117 2 -9 13 -3 25 27 58 31 34 36 47 31 68
-9 36 -36 83 -56 95 -19 12 -78 2 -104 -16 -26 -20 -33 -111 -10 -137 24 -27
12 -60 -23 -60 -67 0 -171 121 -192 225 -15 71 -25 71 -16 -1 15 -131 121
-239 271 -278 259 -68 469 115 453 394 -5 90 -33 159 -86 213 -65 67 -154 97
-207 69z"/>
<path d="M3610 6078 c-50 -14 -126 -92 -163 -168 -27 -55 -32 -75 -32 -140 0
-68 4 -84 38 -152 42 -86 123 -169 203 -209 70 -34 178 -33 254 2 74 35 150
97 188 154 41 61 66 138 57 173 -6 23 -10 17 -26 -46 -26 -104 -65 -170 -119
-204 -78 -50 -107 -25 -76 67 18 50 14 65 -27 103 -54 51 -140 11 -154 -71 -5
-33 -2 -41 31 -71 83 -79 14 -115 -105 -55 -172 86 -238 234 -178 396 26 69
92 139 164 173 63 29 60 27 45 45 -14 17 -48 18 -100 3z"/>
<path d="M5987 5038 c-10 -102 -21 -122 -86 -157 -79 -42 -167 -61 -284 -61
-110 0 -167 16 -167 48 0 26 17 38 73 53 47 11 127 61 127 78 0 6 -21 13 -47
16 -27 4 -72 20 -101 37 -51 28 -55 28 -73 12 -10 -9 -30 -47 -44 -83 -27 -71
-57 -106 -137 -159 -46 -31 -47 -33 -53 -98 -13 -121 4 -192 66 -267 46 -56
225 -170 308 -197 65 -20 73 -21 94 -7 43 28 72 191 47 266 -10 30 -10 43 0
61 11 21 17 22 71 16 135 -14 303 -116 423 -256 64 -75 93 -137 125 -263 38
-156 54 -185 121 -224 116 -67 175 -130 239 -253 56 -108 71 -167 71 -285 0
-96 -2 -105 -36 -175 l-36 -73 55 -166 c31 -91 63 -202 71 -246 8 -44 24 -123
35 -175 26 -120 26 -161 0 -246 -35 -112 -83 -197 -242 -424 -188 -268 -252
-353 -344 -457 -40 -45 -73 -86 -73 -92 0 -6 18 -31 41 -56 57 -61 128 -88
239 -89 75 0 95 4 171 35 214 87 413 231 686 495 222 213 494 514 573 632 114
169 119 334 20 632 -21 63 -44 142 -50 175 -7 33 -51 170 -97 305 -47 135
-106 306 -131 380 -24 74 -52 155 -60 179 -20 56 -144 188 -211 225 l-51 27 0
-70 c0 -142 -100 -375 -269 -626 -147 -219 -231 -297 -231 -215 0 33 23 82 89
195 23 39 55 115 72 170 17 55 46 146 65 202 39 117 42 150 14 185 -43 55
-147 242 -225 404 -45 93 -103 207 -129 252 -26 45 -62 118 -80 162 -19 45
-35 83 -37 85 -3 2 -59 9 -127 14 -129 12 -209 34 -376 106 -45 19 -84 35 -87
35 -4 0 -9 -28 -12 -62z"/>
<path d="M4235 5072 c-11 -2 -76 -30 -145 -62 -124 -59 -199 -78 -365 -97 -63
-7 -70 -13 -84 -69 -26 -104 -268 -608 -367 -765 -76 -120 -77 -129 -16 -301
72 -203 102 -271 177 -409 66 -121 73 -149 37 -149 -42 0 -90 52 -219 235
-200 285 -264 424 -279 606 -6 72 -8 76 -28 71 -11 -3 -67 -50 -122 -104 -110
-107 -99 -88 -157 -288 -13 -47 -77 -258 -141 -469 -64 -211 -121 -413 -126
-450 -6 -36 -24 -108 -40 -159 -37 -113 -37 -158 -4 -264 58 -185 162 -322
514 -677 226 -228 600 -497 814 -586 107 -44 229 -62 309 -45 49 10 68 20 119
69 54 51 60 60 54 85 -4 15 -52 75 -109 134 -59 61 -172 201 -265 327 -90 121
-187 252 -217 290 -86 110 -99 153 -100 320 0 159 15 243 90 492 25 81 45 167
45 189 0 23 -16 85 -35 138 -54 149 -45 236 39 411 72 149 127 212 283 320 16
11 23 29 28 72 9 91 33 170 80 271 34 72 59 107 107 155 80 79 191 152 277
182 36 12 78 28 93 35 18 9 35 9 55 3 l28 -10 0 -124 c0 -104 3 -130 20 -164
20 -40 20 -40 77 -39 109 2 306 121 362 217 25 43 56 180 56 246 0 55 -19 81
-85 120 -71 41 -72 42 -130 154 -25 48 -49 87 -52 87 -3 0 -29 -13 -57 -29
-28 -16 -72 -32 -98 -36 -27 -4 -48 -13 -48 -19 0 -20 45 -56 81 -66 19 -5 53
-14 77 -20 34 -9 42 -15 42 -34 0 -46 -20 -51 -199 -51 -148 1 -172 3 -223 24
-83 32 -103 63 -125 191 -7 38 -11 45 -28 42z"/>
<path d="M5889 4353 c-12 -150 -18 -172 -74 -302 -46 -106 -59 -149 -62 -200
-5 -61 -3 -69 25 -107 32 -44 135 -104 179 -104 40 0 96 29 141 73 73 72 91
185 51 327 -27 97 -61 160 -128 233 -63 67 -129 108 -132 80z"/>
<path d="M4335 4316 c-125 -98 -185 -188 -211 -319 -14 -70 -14 -84 0 -154 17
-85 47 -137 108 -186 72 -58 166 -44 257 38 80 73 77 123 -23 343 -37 82 -57
141 -66 196 -18 120 -18 119 -65 82z"/>
<path d="M5227 3860 c-30 -36 -57 -60 -68 -60 -33 0 -93 37 -114 69 -26 41
-45 36 -71 -18 -23 -48 -56 -81 -82 -81 -8 0 -41 22 -73 50 -50 44 -58 48 -70
34 -11 -13 -69 -141 -69 -151 0 -6 66 -3 144 7 182 22 372 30 481 21 232 -20
305 -22 305 -9 0 20 -74 158 -84 158 -6 0 -31 -22 -57 -50 -26 -27 -54 -50
-63 -50 -39 0 -75 31 -100 85 -15 30 -28 55 -29 55 -1 0 -24 -27 -50 -60z"/>
<path d="M6281 3636 c-45 -70 -74 -95 -148 -128 -66 -29 -216 -28 -323 1 -41
12 -156 39 -255 61 -99 21 -209 46 -245 54 -90 22 -155 20 -334 -9 -111 -18
-209 -42 -340 -84 -226 -72 -284 -85 -357 -77 -130 13 -236 76 -276 162 -13
30 -31 54 -38 54 -18 0 -121 -141 -153 -210 -67 -145 -5 -298 152 -376 98 -48
172 -55 279 -25 114 31 327 123 452 196 136 79 214 115 328 150 163 51 257 30
569 -126 486 -244 672 -267 834 -105 45 45 65 75 79 115 22 68 16 159 -15 220
-18 36 -140 179 -161 189 -3 1 -25 -27 -48 -62z"/>
<path d="M5082 3304 c-29 -7 -66 -21 -82 -29 -39 -20 -281 -170 -435 -269
-134 -86 -241 -141 -318 -163 -72 -19 -276 -29 -317 -14 -28 9 -36 8 -52 -5
-10 -10 -18 -23 -18 -30 0 -7 -21 -68 -46 -136 -93 -247 -113 -384 -74 -495
11 -32 51 -109 89 -173 37 -63 85 -146 105 -185 50 -96 142 -216 280 -367 183
-199 268 -260 365 -260 46 1 131 27 131 41 0 3 -8 18 -18 32 -9 14 -35 52 -56
84 -64 96 -149 283 -150 329 -1 36 2 41 21 41 16 0 50 -41 147 -177 172 -241
234 -293 371 -309 171 -21 190 -21 303 0 104 18 118 23 170 63 71 55 167 176
258 326 51 84 76 117 90 117 31 0 29 -49 -7 -139 -40 -101 -101 -224 -146
-295 l-35 -54 26 -26 c23 -22 35 -26 89 -26 54 0 71 5 122 35 80 47 245 213
325 328 124 177 316 497 354 591 42 105 48 147 32 231 -17 91 -95 344 -129
420 -35 80 -38 81 -137 63 -108 -19 -162 -13 -293 30 -134 45 -280 119 -434
218 -148 96 -247 150 -333 182 -88 33 -135 38 -198 21z"/>
</g>
</svg>
